<svg xmlns="http://www.w3.org/2000/svg" viewBox="0 0 800 600">
  <!-- Enhanced Gradients -->
  <defs>
    <linearGradient id="screenGlow" x1="0%" y1="0%" x2="100%" y2="100%">
      <stop offset="0%" style="stop-color:#ff00ff;stop-opacity:0.8"/>
      <stop offset="50%" style="stop-color:#00ffff;stop-opacity:0.6"/>
      <stop offset="100%" style="stop-color:#ff0099;stop-opacity:0.8"/>
    </linearGradient>
    
    <filter id="modernGlow" x="-50%" y="-50%" width="200%" height="200%">
      <feGaussianBlur stdDeviation="5" result="blur"/>
      <feFlood flood-color="#ff00ff" result="color"/>
      <feComposite in="color" in2="blur" operator="in"/>
      <feMerge>
        <feMergeNode/>
        <feMergeNode in="SourceGraphic"/>
      </feMerge>
    </filter>
    
    <pattern id="gridPattern" width="20" height="20" patternUnits="userSpaceOnUse">
      <rect width="20" height="20" fill="none" stroke="#ffffff" stroke-width="0.5" opacity="0.1"/>
    </pattern>
  </defs>



  <!-- Main Workspace -->
  <g transform="translate(50, 50)">
    <!-- Preview Screen -->
    <rect x="0" y="0" width="500" height="300" rx="15" 
          fill="#1a1a1a" stroke="url(#screenGlow)" stroke-width="3"/>
    
    <!-- Video Controls -->
    <g transform="translate(0, 320)">
      <rect x="0" y="0" width="500" height="80" rx="10" 
            fill="#2a2a2a" stroke="#333" stroke-width="2"/>
      <!-- Control Buttons -->
      <circle cx="50" cy="40" r="15" fill="#ff0099" filter="url(#modernGlow)"/>
      <circle cx="100" cy="40" r="15" fill="#00ffff" filter="url(#modernGlow)"/>
      <circle cx="150" cy="40" r="15" fill="#ff00ff" filter="url(#modernGlow)"/>
      <!-- Progress Bar -->
      <rect x="200" y="35" width="250" height="10" rx="5" fill="#333"/>
      <rect x="200" y="35" width="150" height="10" rx="5" fill="url(#screenGlow)"/>
    </g>

    <!-- Effects Panel -->
    <g transform="translate(520, 0)">
      <rect x="0" y="0" width="180" height="400" rx="15" 
            fill="#1a1a1a" stroke="#333" stroke-width="2"/>
      
      <!-- Effect Icons -->
      <g transform="translate(20, 20)">
        <rect x="0" y="0" width="140" height="40" rx="8" 
              fill="#2a2a2a" stroke="url(#screenGlow)" stroke-width="1"/>
        <rect x="0" y="60" width="140" height="40" rx="8" 
              fill="#2a2a2a" stroke="url(#screenGlow)" stroke-width="1"/>
        <rect x="0" y="120" width="140" height="40" rx="8" 
              fill="#2a2a2a" stroke="url(#screenGlow)" stroke-width="1"/>
      </g>
    </g>
  </g>
</svg>