<svg xmlns="http://www.w3.org/2000/svg" viewBox="0 0 800 600">
  <defs>
    <linearGradient id="toolGradient" x1="0%" y1="0%" x2="100%" y2="100%">
      <stop offset="0%" style="stop-color:#ff00ff;stop-opacity:1"/>
      <stop offset="100%" style="stop-color:#00ffff;stop-opacity:1"/>
    </linearGradient>
    
    <filter id="toolGlow">
      <feGaussianBlur stdDeviation="3" result="blur"/>
      <feFlood flood-color="#ff00ff" result="color"/>
      <feComposite in="color" in2="blur" operator="in"/>
      <feMerge>
        <feMergeNode/>
        <feMergeNode in="SourceGraphic"/>
      </feMerge>
    </filter>

    <pattern id="gridDots" width="20" height="20" patternUnits="userSpaceOnUse">
      <circle cx="10" cy="10" r="1" fill="#ffffff" opacity="0.2"/>
    </pattern>
  </defs>

  <!-- Main Tools Group -->
  <g transform="translate(100, 100)">
    <!-- Tool Bar -->
    <rect x="0" y="0" width="600" height="80" rx="40" 
          fill="none" stroke="url(#toolGradient)" 
          stroke-width="3" filter="url(#toolGlow)"/>
    
    <!-- Tool Icons -->
    <circle cx="80" cy="40" r="25" fill="#ff0099" filter="url(#toolGlow)"/>
    <circle cx="200" cy="40" r="25" fill="#00ffff" filter="url(#toolGlow)"/>
    <circle cx="320" cy="40" r="25" fill="#ff00ff" filter="url(#toolGlow)"/>
    <circle cx="440" cy="40" r="25" fill="#ff0099" filter="url(#toolGlow)"/>
    <circle cx="560" cy="40" r="25" fill="#00ffff" filter="url(#toolGlow)"/>
  </g>

  <!-- Timeline Elements -->
  <g transform="translate(100, 250)">
    <!-- Dynamic Waveform -->
    <path d="M0 50 Q 150 0, 300 50 T 600 50" 
          stroke="url(#toolGradient)" stroke-width="3" 
          fill="none" filter="url(#toolGlow)"/>
    
    <!-- Clip Markers -->
    <rect x="50" y="80" width="100" height="40" rx="20" 
          fill="#ff0099" opacity="0.8" filter="url(#toolGlow)"/>
    <rect x="200" y="80" width="150" height="40" rx="20" 
          fill="#00ffff" opacity="0.8" filter="url(#toolGlow)"/>
    <rect x="400" y="80" width="120" height="40" rx="20" 
          fill="#ff00ff" opacity="0.8" filter="url(#toolGlow)"/>
  </g>

  <!-- Effect Controls -->
  <g transform="translate(100, 400)">
    <!-- Slider Tracks -->
    <rect x="0" y="0" width="600" height="10" rx="5" 
          fill="none" stroke="#ff00ff" stroke-width="2"/>
    <rect x="0" y="30" width="600" height="10" rx="5" 
          fill="none" stroke="#00ffff" stroke-width="2"/>
    
    <!-- Slider Handles -->
    <circle cx="200" cy="5" r="15" 
            fill="#ff00ff" filter="url(#toolGlow)"/>
    <circle cx="400" cy="35" r="15" 
            fill="#00ffff" filter="url(#toolGlow)"/>
  </g>
</svg>